#!OML:ASF F:\VICON\USERDATA\INSTALL\rory3\rory3.ASF
:FULLY-SPECIFIED
:DEGREES
274
root 0.99606 15.3485 -18.647 3.12755 -17.3442 3.07164
lowerback 24.9141 1.51996 3.34342
upperback 2.74983 3.35921 4.46651
thorax -10.9408 1.50472 1.9665
lowerneck -24.1273 -1.36249 -7.39955
upperneck 4.85201 -0.0745064 3.92989
head 5.25023 0.105958 2.43047
rclavicle 1.19271e-014 6.83819e-014
rhumerus -15.4379 -22.7198 -74.7757
rradius 25.8036
rwrist 5.7482
rhand -16.5038 8.12081
rfingers 7.12502
rthumb 9.71412 -21.6352
lclavicle 1.19271e-014 6.83819e-014
lhumerus -28.6868 14.0527 82.5785
lradius 37.7648
lwrist -4.13343
lhand -22.7388 22.2475
lfingers 7.12502
lthumb 3.69538 52.1953
rfemur -45.7631 4.72368 15.254
rtibia 71.273
rfoot -23.9269 -5.51865
rtoes -9.72295
lfemur -41.6351 11.8432 -22.9229
ltibia 69.4309
lfoot -27.2561 4.7859
ltoes -5.93186
275
root 0.998508 15.427 -18.6909 3.33746 -16.7803 3.08308
lowerback 24.8413 1.43025 3.41943
upperback 2.81485 3.26102 4.52038
thorax -10.8252 1.45912 2.01731
lowerneck -24.1421 -1.52424 -7.33572
upperneck 4.20526 -0.290085 3.82404
head 5.05583 0.00131767 2.35871
rclavicle 4.92986e-014 2.06736e-014
rhumerus -15.1941 -19.7188 -75.3824
rradius 28.3918
rwrist 4.20675
rhand -17.0679 7.31967
rfingers 7.12502
rthumb 9.16981 -22.461
lclavicle 4.92986e-014 2.06736e-014
lhumerus -28.3901 13.6904 82.9135
lradius 37.879
lwrist -3.25013
lhand -23.8441 20.267
lfingers 7.12502
lthumb 2.62796 50.2306
rfemur -45.4807 4.50251 15.1836
rtibia 70.3328
rfoot -23.541 -5.54909
rtoes -9.02669
lfemur -41.5458 11.3134 -22.9657
ltibia 68.4874
lfoot -26.9018 4.28721
ltoes -4.97429
276
root 0.994444 15.4964 -18.7409 3.5695 -16.3466 2.91455
lowerback 24.911 1.40371 3.47623
upperback 2.78271 3.26689 4.66846
thorax -10.9064 1.46239 2.14902
lowerneck -24.2376 -1.69737 -7.5135
upperneck 4.07454 -0.465769 3.89613
head 5.03789 -0.0801345 2.3907
rclavicle 3.02153e-014 -4.13472e-014
rhumerus -15.068 -17.1599 -75.7492
rradius 30.5906
rwrist 3.35051
rhand -17.5879 6.84832
rfingers 7.12502
rthumb 8.66799 -22.9537
lclavicle 3.02153e-014 -4.13472e-014
lhumerus -28.4296 13.2164 83.3144
lradius 38.164
lwrist -1.32605
lhand -25.076 19.5464
lfingers 7.12502
lthumb 1.43821 49.5213
rfemur -45.1994 4.62444 15.3254
rtibia 69.3256
rfoot -22.9399 -5.74766
rtoes -8.75435
lfemur -41.4912 10.9909 -22.7922
ltibia 67.4832
lfoot -26.3151 4.01562
ltoes -4.09421
277
root 0.985852 15.578 -18.7884 3.62405 -15.9659 2.80659
lowerback 25.0174 1.39801 3.47794
upperback 2.84574 3.27305 4.75962
thorax -10.8976 1.46748 2.24702
lowerneck -24.224 -1.85152 -7.58665
upperneck 3.75352 -0.65378 3.96612
head 4.94411 -0.164273 2.4031
rclavicle -1.03368e-014 -2.22639e-014
rhumerus -14.882 -14.6506 -76.0634
rradius 32.5158
rwrist 2.80622
rhand -17.9323 7.84236
rfingers 7.12502
rthumb 8.33572 -21.9732
lclavicle -1.03368e-014 -2.22639e-014
lhumerus -28.318 12.6927 83.6679
lradius 38.4377
lwrist 1.4987
lhand -25.4146 20.0958
lfingers 7.12502
lthumb 1.11114 50.0726
rfemur -44.6361 4.85852 15.4229
rtibia 68.1711
rfoot -22.3677 -5.89088
rtoes -8.04445
lfemur -41.1323 10.7881 -22.6439
ltibia 66.3278
lfoot -25.664 3.74318
ltoes -3.7393
278
root 0.975408 15.6667 -18.824 3.57905 -15.4234 2.91249
lowerback 24.9982 1.34161 3.34954
upperback 2.8101 3.1708 4.77543
thorax -10.9341 1.42706 2.37339
lowerneck -23.5952 -1.89978 -7.54717
upperneck 3.13979 -0.770859 3.9517
head 4.66429 -0.219909 2.3764
rclavicle -4.77083e-014 -7.15625e-014
rhumerus -15.0225 -12.2469 -76.1386
rradius 34.1327
rwrist 2.78721
rhand -18.8188 9.17955
rfingers 7.12502
rthumb 7.48003 -20.6682
lclavicle -4.77083e-014 -7.15625e-014
lhumerus -28.309 12.3018 83.8598
lradius 38.3917
lwrist 4.37483
lhand -25.2086 20.2269
lfingers 7.12502
lthumb 1.31014 50.2027
rfemur -43.9095 4.95171 15.2952
rtibia 66.9031
rfoot -21.8 -6.20081
rtoes -7.90174
lfemur -40.5653 10.4206 -22.6972
ltibia 65.0135
lfoot -25.0317 3.51388
ltoes -4.46271
